# xmcd CD database file
#
# Track frame offsets:
#	150
#	11739
#	23565
#	36363
#	48068
#	62266
#	74102
#	84974
#	95629
#	106360
#	117094
#	133701
#	144798
#	155082
#	166620
#	177226
#	188835
#	200615
#	212607
#	228787
#
# Disc length: 3203 seconds
#
# Revision: 0
# Processed by: cddbd v1.5.2PL0 Copyright (c) Steve Scherf et al.
# Submitted via: CDex 1.51
#
DISCID=040c8114
DTITLE=Various Artist - Ladies Of Country - CD1
DYEAR=2006
DGENRE=Country
TTITLE0=Walkin' After Midnight - Patsy Cline
TTITLE1=Rodeo Cowboy - Lynn Anderson
TTITLE2=Dallas - Billie Jo Spears
TTITLE3=You Can't Put The City In A Country Girl - Barbara Fairchild
TTITLE4=I Want To Be A Cowboy's Sweetheart - Patsy Montana and the Prairie Ramblers
TTITLE5=Making Beleive - Dolly Parton
TTITLE6=I Don't Wanna - Patsy Cline
TTITLE7=Tears At The Grand Ole Op'ry - Wanda Jackson
TTITLE8=I'm So Lonesome I Could Cry - Billie Jo Spears
TTITLE9=San Antonio Rose - Patti Page
TTITLE10=Blue Bayou - Lynn Anderson
TTITLE11=I've Kissed You My Last Time - Kitty Wells
TTITLE12=It Makes No Difference Now - Billie Jo Spears
TTITLE13=Cheatin' Is - Barbara Fairchild
TTITLE14=Honky Tonk Merry Go Round - Patsy Cline
TTITLE15=If You Knew What I Know - Wanda Jackson
TTITLE16=I Want You Yes (You Want Me No) - Ginny Wright
TTITLE17=Look What They've Done To My Song - Billie Jo Spears
TTITLE18=Devil Went Down To Georgia - Lynn Anderson
TTITLE19=I've Loved and Lost Again - Patsy Cline
EXTD=YEAR: 2006
EXTT0=
EXTT1=
EXTT2=
EXTT3=
EXTT4=
EXTT5=
EXTT6=
EXTT7=
EXTT8=
EXTT9=
EXTT10=
EXTT11=
EXTT12=
EXTT13=
EXTT14=
EXTT15=
EXTT16=
EXTT17=
EXTT18=
EXTT19=
PLAYORDER=
